<svg width="1000" height="697" viewBox="0 0 1000 697" fill="none" xmlns="http://www.w3.org/2000/svg">
<path d="M664.078 95.1064C681.082 104.923 691.564 123.058 691.564 142.691V301.177C691.564 320.811 681.082 338.945 664.078 348.762L499.282 443.858L334.486 348.741C317.481 338.924 307 320.79 307 301.156V142.67C307 123.036 317.481 104.902 334.486 95.0851L499.282 0L664.078 95.1064Z" fill="white"/>
<path d="M582.036 365.801L582.281 67.3467L507.784 110.305V322.96L582.026 365.801H582.036Z" fill="#6100FF"/>
<path d="M599.413 77.5039V365.801L654.363 334.085C666.6 327.022 674.144 313.972 674.144 299.848V143.468C674.166 129.343 666.621 116.282 654.374 109.22L599.413 77.5039Z" fill="#4C00BD"/>
<path d="M415.953 375.948L499.112 423.682L573.364 380.83L490.429 332.968L415.953 375.948Z" fill="#6100FF"/>
<path d="M582.281 67.3467L499.122 19.6127L424.87 62.4648L507.784 110.294L582.281 67.336V67.3467Z" fill="#6696FF"/>
<path d="M343.85 109.22C331.613 116.282 324.068 129.343 324.068 143.468V299.922C324.089 314.015 331.591 327.033 343.786 334.117L398.597 365.918L398.821 77.4933L343.85 109.22Z" fill="#6696FF"/>
<path d="M416.176 77.5039L415.953 375.948L490.429 332.968V120.356L416.165 77.5039H416.176Z" fill="#6966FF"/>
<path d="M935.187 697C922.104 697 910.398 694.677 900.069 690.031C889.74 685.385 881.563 678.417 875.538 669.125C869.685 659.662 866.759 647.875 866.759 633.766V628.346H888.191V633.766C888.191 648.736 892.581 659.92 901.36 667.319C910.14 674.545 921.415 678.159 935.187 678.159C949.303 678.159 960.062 674.976 967.465 668.609C974.867 662.243 978.568 654.242 978.568 644.606C978.568 637.896 976.846 632.561 973.403 628.604C970.133 624.647 965.485 621.463 959.46 619.054C953.435 616.473 946.377 614.237 938.286 612.344L924.858 608.989C914.357 606.236 905.061 602.88 896.971 598.923C888.88 594.965 882.51 589.803 877.862 583.437C873.386 576.898 871.149 568.553 871.149 558.401C871.149 548.25 873.645 539.474 878.637 532.075C883.801 524.677 890.945 518.998 900.069 515.041C909.365 511.083 920.038 509.105 932.088 509.105C944.311 509.105 955.242 511.256 964.882 515.557C974.695 519.687 982.355 525.881 987.864 534.14C993.545 542.227 996.385 552.465 996.385 564.854V575.694H974.953V564.854C974.953 556.079 973.059 549.024 969.272 543.69C965.657 538.356 960.579 534.398 954.037 531.817C947.668 529.236 940.351 527.946 932.088 527.946C920.21 527.946 910.656 530.613 903.426 535.947C896.196 541.109 892.581 548.508 892.581 558.143C892.581 564.51 894.13 569.672 897.229 573.629C900.327 577.587 904.717 580.856 910.398 583.437C916.079 585.846 922.879 587.997 930.797 589.889L944.225 593.245C954.726 595.481 964.108 598.579 972.371 602.536C980.806 606.322 987.52 611.57 992.512 618.28C997.504 624.819 1000 633.422 1000 644.09C1000 654.758 997.332 664.049 991.995 671.964C986.659 679.879 979.084 686.074 969.272 690.547C959.632 694.849 948.27 697 935.187 697Z" fill="#6C99FC"/>
<path d="M768.373 697C754.946 697 743.24 694.591 733.255 689.773C723.271 684.955 715.524 677.815 710.015 668.351C704.507 658.715 701.752 646.929 701.752 632.992V512.718H723.185V633.25C723.185 648.047 727.144 659.145 735.063 666.544C742.982 673.943 754.085 677.642 768.373 677.642C782.661 677.642 793.765 673.943 801.683 666.544C809.602 659.145 813.562 648.047 813.562 633.25V512.718H835.252V632.992C835.252 646.929 832.498 658.715 826.989 668.351C821.48 677.815 813.648 684.955 803.491 689.773C793.506 694.591 781.801 697 768.373 697Z" fill="#6C99FC"/>
<path d="M595.652 693.386V532.333H537.552V512.718H675.442V532.333H617.342V693.386H595.652Z" fill="#6C99FC"/>
<path d="M379.765 693.386V512.718H421.854L484.86 679.707H488.217V512.718H509.649V693.386H467.559L404.812 526.139H401.197V693.386H379.765Z" fill="#6C99FC"/>
<path d="M234.264 693.386V512.718H345.556V532.333H255.954V592.728H338.326V612.344H255.954V673.771H346.847V693.386H234.264Z" fill="#6C99FC"/>
<path d="M54.5208 693.386V674.029H79.8263V532.075H54.5208V512.718H125.015C148.771 512.718 167.105 518.74 180.016 530.785C193.099 542.829 199.64 561.326 199.64 586.276V619.829C199.64 644.95 193.099 663.533 180.016 675.578C167.105 687.45 148.771 693.386 125.015 693.386H54.5208ZM101.517 673.771H125.015C142.574 673.771 155.829 669.469 164.781 660.866C173.732 652.263 178.208 638.928 178.208 620.861V585.502C178.208 567.091 173.732 553.67 164.781 545.238C155.829 536.807 142.574 532.592 125.015 532.592H101.517V673.771Z" fill="#6C99FC"/>
<path d="M0 693.386V512.718H21.6905V693.386H0Z" fill="#6C99FC"/>
</svg>
