<svg width="1500" height="444" viewBox="0 0 1500 444" fill="none" xmlns="http://www.w3.org/2000/svg">
<g clip-path="url(#clip0_57_1922)">
<path d="M1491.5 299.653C1486.26 292.609 1479.22 287.109 1470.38 283.14C1461.71 278.991 1451.87 275.735 1440.86 273.394L1426.78 269.873C1418.48 267.883 1411.35 265.628 1405.39 263.106C1399.43 260.403 1394.82 256.967 1391.58 252.817C1388.33 248.668 1386.71 243.253 1386.71 236.571C1386.71 226.463 1390.49 218.707 1398.08 213.291C1405.66 207.695 1415.68 204.897 1428.13 204.897C1436.8 204.897 1444.48 206.248 1451.15 208.961C1458.01 211.664 1463.33 215.824 1467.12 221.409C1471.1 227.006 1473.08 234.4 1473.08 243.614V254.988H1495.55V243.614C1495.55 230.623 1492.57 219.877 1486.62 211.398C1480.85 202.737 1472.81 196.236 1462.52 191.906C1452.41 187.395 1440.95 185.139 1428.13 185.139C1415.31 185.139 1404.31 187.214 1394.56 191.363C1384.99 195.513 1377.5 201.471 1372.08 209.227C1366.85 216.983 1364.23 226.197 1364.23 236.837C1364.23 247.476 1366.58 256.243 1371.28 263.095C1376.15 269.777 1382.82 275.192 1391.31 279.342C1399.79 283.491 1409.54 287.013 1420.55 289.896L1434.63 293.418C1443.11 295.408 1450.52 297.748 1456.84 300.461C1463.15 302.994 1468.02 306.324 1471.46 310.473C1475.07 314.623 1476.88 320.219 1476.88 327.263C1476.88 337.37 1472.99 345.765 1465.23 352.446C1457.47 359.128 1446.19 362.458 1431.39 362.458C1416.59 362.458 1405.11 358.671 1395.91 351.085C1386.71 343.328 1382.11 331.593 1382.11 315.889V310.207H1359.64V315.889C1359.64 330.689 1362.7 343.052 1368.84 352.978C1375.15 362.724 1383.73 370.034 1394.56 374.907C1405.39 379.779 1417.66 382.216 1431.39 382.216C1445.11 382.216 1457.02 379.96 1467.12 375.449C1477.41 370.757 1485.36 364.256 1490.95 355.957C1496.55 347.659 1499.34 337.913 1499.34 326.72C1499.34 315.527 1496.73 306.505 1491.5 299.642V299.653Z" fill="#6696FF"/>
<path d="M1303.84 315.346C1303.84 330.869 1299.69 342.509 1291.39 350.276C1283.1 358.032 1271.44 361.916 1256.46 361.916C1241.48 361.916 1229.84 358.032 1221.54 350.276C1213.24 342.52 1209.08 330.869 1209.08 315.346V188.916H1186.6V315.08C1186.6 329.699 1189.5 342.062 1195.28 352.17C1201.05 362.097 1209.17 369.587 1219.64 374.641C1230.11 379.694 1242.38 382.216 1256.46 382.216C1270.54 382.216 1282.82 379.684 1293.29 374.641C1303.94 369.587 1312.16 362.097 1317.93 352.17C1323.7 342.062 1326.6 329.699 1326.6 315.08V188.916H1303.84V315.346Z" fill="#6696FF"/>
<path d="M1014.43 209.493H1075.35V378.428H1098.1V209.493H1159.02V188.916H1014.43V209.493Z" fill="#6696FF"/>
<path d="M962.696 364.086H959.174L893.115 188.916H848.977V378.428H871.45V203.003H875.239L941.042 378.428H985.17V188.916H962.696V364.086Z" fill="#6696FF"/>
<path d="M719.147 293.418H805.53V272.852H719.147V209.493H813.106V188.916H696.407V378.428H814.458V357.851H719.147V293.418Z" fill="#6696FF"/>
<path d="M639.52 207.876C625.985 195.247 606.757 188.927 581.847 188.927H507.924V209.238H534.462V358.138H507.924V378.449H581.847C606.757 378.449 625.985 372.225 639.52 359.766C653.237 347.137 660.1 327.635 660.1 301.291V266.096C660.1 239.922 653.237 220.526 639.52 207.886V207.876ZM637.626 302.355C637.626 321.304 632.934 335.295 623.548 344.318C614.163 353.34 600.266 357.851 581.847 357.851H557.202V209.759H581.847C600.255 209.759 614.152 214.185 623.548 223.027C632.934 231.868 637.626 245.944 637.626 265.266V302.355Z" fill="#6696FF"/>
<path d="M473.501 188.916H450.761V378.428H473.501V188.916Z" fill="#6696FF"/>
<path d="M357.078 95.1391C374.082 104.959 384.564 123.1 384.564 142.741V301.281C384.564 320.921 374.082 339.062 357.078 348.882L192.282 444.011L27.4855 348.861C10.4813 339.041 0 320.9 0 301.259V142.719C0 123.079 10.4813 104.938 27.4855 95.1178L192.282 0L357.078 95.1391Z" fill="white"/>
<path d="M275.036 365.927L275.281 67.3698L200.784 110.343V323.071L275.026 365.927H275.036Z" fill="#6100FF"/>
<path d="M292.413 77.5305V365.927L347.363 334.2C359.6 327.135 367.144 314.08 367.144 299.951V143.517C367.166 129.388 359.621 116.322 347.373 109.258L292.413 77.5305Z" fill="#4C00BD"/>
<path d="M108.953 376.077L192.112 423.827L266.364 380.961L183.429 333.083L108.953 376.077Z" fill="#6100FF"/>
<path d="M275.281 67.3698L192.122 19.6194L117.87 62.4862L200.784 110.332L275.281 67.3591V67.3698Z" fill="#6696FF"/>
<path d="M36.8495 109.258C24.6125 116.322 17.068 129.388 17.068 143.517V300.025C17.0893 314.123 24.5912 327.146 36.7857 334.232L91.5972 366.044L91.8206 77.5199L36.8495 109.258Z" fill="#6696FF"/>
<path d="M109.176 77.5305L108.953 376.077L183.429 333.082V120.397L109.165 77.5305H109.176Z" fill="#6966FF"/>
<path d="M1094.19 90.1171C1093.57 85.9039 1091.63 82.3077 1088.4 79.435C1084.1 75.6048 1078.83 73.6471 1072.76 73.6258C1066.09 73.5832 1059.38 73.5833 1052.7 73.5833C1045.32 73.5833 1037.98 73.5939 1030.77 73.6152H1026.27C1024.9 73.6152 1023.41 73.7641 1021.86 74.0407C1019.19 74.5089 1016.7 75.4026 1014.45 76.6794C1011.03 78.637 1008.48 81.148 1006.7 84.3399C1005.1 87.2019 1004.32 90.3299 1004.33 93.9261V105.481C1004.33 110.683 1004.33 115.886 1004.36 121.089C1004.36 122.132 1004.43 123.227 1004.59 124.366C1005.38 130.154 1008.44 134.718 1013.71 137.921C1017.55 140.261 1021.98 141.442 1026.84 141.464H1072.3C1076.27 141.464 1079.96 140.644 1083.25 139.038C1089.82 135.835 1093.46 130.899 1094.35 123.962C1094.42 123.43 1094.44 122.898 1094.47 122.323V122.27H1079.85L1079.79 122.674C1079.41 126.015 1077.3 128.441 1074.15 129.164C1072.94 129.441 1071.71 129.579 1070.51 129.579C1056.53 129.611 1042.55 129.611 1028.56 129.579C1027.34 129.579 1026.13 129.441 1024.92 129.164C1022.18 128.537 1020.33 126.877 1019.56 124.334C1019.26 123.376 1019.1 122.291 1019.06 121.11C1019.01 119.482 1019.02 117.855 1019.03 116.269V112.886L1094.56 113.014V107.662C1094.56 103.544 1094.57 99.4374 1094.54 95.3199C1094.53 93.4048 1094.4 91.7131 1094.19 90.1491V90.1171ZM1079.91 99.9162V100.97H1019.06V97.6819C1019.06 96.1285 1019.03 94.5219 1019.1 92.9366H1019.08C1019.24 89.2341 1021.5 86.5848 1025.13 85.8188C1026.32 85.5634 1027.56 85.4464 1028.85 85.4464C1039.57 85.4357 1050.27 85.4357 1060.98 85.4357H1070.34C1071.62 85.4357 1073.31 85.4996 1074.98 86.0847C1077.91 87.0849 1079.59 89.2447 1079.81 92.3408C1079.93 94.1283 1079.92 95.937 1079.91 97.6819C1079.91 98.4266 1079.89 99.1714 1079.91 99.9162Z" fill="white"/>
<path d="M1414.51 90.1171C1413.9 85.9145 1411.96 82.3183 1408.72 79.4456C1404.42 75.6154 1399.17 73.6577 1393.09 73.6364C1386.43 73.5939 1379.71 73.5939 1373.02 73.5939C1365.66 73.5939 1358.32 73.6045 1351.1 73.6258H1346.59C1345.23 73.6258 1343.75 73.7747 1342.19 74.0514C1339.51 74.5195 1337.03 75.4132 1334.79 76.69C1331.35 78.6477 1328.82 81.1586 1327.03 84.3505C1325.44 87.2125 1324.66 90.3406 1324.67 93.9367V105.491C1324.67 110.694 1324.67 115.897 1324.68 121.1C1324.68 122.142 1324.76 123.238 1324.91 124.377C1325.71 130.164 1328.78 134.729 1334.03 137.931C1337.87 140.272 1342.3 141.453 1347.17 141.474H1392.63C1396.6 141.474 1400.29 140.655 1403.58 139.049C1410.16 135.846 1413.79 130.909 1414.68 123.972C1414.74 123.43 1414.78 122.887 1414.81 122.323V122.27H1400.18L1400.12 122.674C1399.73 126.015 1397.62 128.441 1394.47 129.164C1393.27 129.441 1392.05 129.579 1390.85 129.579C1376.85 129.611 1362.88 129.611 1348.9 129.579C1347.67 129.579 1346.45 129.441 1345.26 129.164C1342.51 128.537 1340.65 126.877 1339.89 124.334C1339.6 123.376 1339.43 122.291 1339.39 121.11C1339.33 119.482 1339.35 117.854 1339.36 116.269V112.886L1414.88 113.013V107.662C1414.88 103.544 1414.9 99.4374 1414.87 95.3199C1414.86 93.4048 1414.73 91.7131 1414.51 90.1491V90.1171ZM1400.19 97.6819C1400.19 98.4266 1400.18 99.1714 1400.19 99.9162V100.969H1339.35V97.6819C1339.35 96.1285 1339.32 94.5219 1339.39 92.9366C1339.55 89.234 1341.8 86.5848 1345.43 85.8187C1346.62 85.5634 1347.87 85.4464 1349.15 85.4464C1359.87 85.4357 1370.57 85.4357 1381.28 85.4357H1390.64C1391.92 85.4357 1393.61 85.4996 1395.28 86.0847C1398.21 87.0849 1399.89 89.2447 1400.11 92.3408C1400.23 94.1282 1400.22 95.937 1400.21 97.6819H1400.19Z" fill="white"/>
<path d="M870.588 90.1171H870.599C869.992 85.9145 868.045 82.3183 864.81 79.4456C860.511 75.6154 855.255 73.6577 849.168 73.6364C842.507 73.5939 835.793 73.5939 829.099 73.5939C821.736 73.5939 814.394 73.6045 807.179 73.6258H802.667C801.305 73.6258 799.826 73.7747 798.273 74.0514C795.591 74.5195 793.112 75.4132 790.866 76.69C787.429 78.6477 784.897 81.1586 783.109 84.3505C781.513 87.1912 780.736 90.3406 780.747 93.9367V105.353C780.747 110.598 780.747 115.854 780.758 121.1C780.758 122.142 780.843 123.238 780.992 124.377C781.779 130.164 784.844 134.729 790.111 137.931C793.952 140.272 798.379 141.453 803.253 141.474H848.7C852.669 141.474 856.361 140.655 859.65 139.049C866.226 135.846 869.865 130.909 870.748 123.972C870.823 123.43 870.844 122.887 870.876 122.323V122.27H856.255L856.202 122.674C855.819 126.015 853.701 128.441 850.552 129.164C849.338 129.441 848.125 129.579 846.912 129.579C832.93 129.611 818.948 129.611 804.966 129.579C803.742 129.579 802.529 129.441 801.327 129.164C798.581 128.537 796.719 126.877 795.953 124.334C795.666 123.376 795.495 122.291 795.453 121.11C795.4 119.482 795.41 117.854 795.421 116.269V114.716C795.421 114.503 795.463 114.301 795.495 114.035L795.623 113.003H870.95V107.63C870.95 103.523 870.961 99.4161 870.94 95.2986C870.929 93.3835 870.801 91.6918 870.578 90.1278L870.588 90.1171ZM856.298 97.7776H856.266C856.266 98.5118 856.255 99.2672 856.266 100.012C856.266 100.225 856.191 100.384 856.138 100.48L855.946 100.948L855.393 101.065H795.602L795.495 100.203C795.463 100.033 795.442 99.8843 795.442 99.7353V97.7776C795.442 96.2242 795.41 94.6177 795.485 93.0324C795.634 89.3298 797.9 86.6805 801.518 85.9145C802.71 85.6698 803.955 85.5421 805.253 85.5421C815.968 85.5315 826.673 85.5315 837.378 85.5315H846.742C848.019 85.5315 849.711 85.606 851.371 86.1805C854.297 87.1806 855.978 89.3404 856.202 92.4366C856.33 94.2134 856.308 96.0327 856.298 97.7776Z" fill="white"/>
<path d="M466.467 91.5216V39.0685H451.719V141.347C453.442 141.347 454.826 141.347 456.401 141.315C458.763 141.304 461.519 141.272 466.477 141.272V129.739C466.52 119.525 466.477 121.791 466.477 111.577V91.5109L466.467 91.5216Z" fill="white"/>
<path d="M1497.38 84.1696C1495.61 80.8394 1493.09 78.2327 1489.9 76.424C1486.66 74.594 1482.94 73.679 1478.56 73.6045C1472.61 73.5194 1467.27 73.5194 1462.24 73.6045C1458.82 73.6577 1455.46 74.3918 1452.53 75.6898C1450.55 76.5623 1448.8 77.9135 1447.27 79.4669L1447.19 79.552V73.7641H1432.44C1432.44 73.7641 1432.79 141.538 1432.55 141.4H1447.2L1447.41 95.5646C1447.41 94.1601 1447.48 93.0217 1447.61 91.9897C1447.97 89.3404 1449.38 87.4572 1451.81 86.3826C1453.53 85.6166 1455.28 85.5208 1456.78 85.5208C1463.15 85.5208 1469.51 85.5102 1475.9 85.5208C1476.92 85.5208 1477.92 85.6591 1478.95 85.8294C1482.64 86.3826 1485.03 89.1276 1485.3 93.1387H1500C1499.51 89.4894 1498.68 86.6273 1497.38 84.1802V84.1696Z" fill="white"/>
<path d="M954.354 84.1802C952.577 80.8394 950.066 78.2327 946.873 76.424C943.628 74.594 939.925 73.679 935.541 73.6045C929.592 73.5194 924.251 73.5194 919.207 73.6045C915.791 73.6577 912.439 74.3918 909.513 75.6898C907.534 76.5623 905.778 77.9135 904.256 79.4669L904.171 79.552V73.7641H889.423C889.423 73.7641 889.774 141.538 889.529 141.4H904.182L904.395 95.5646C904.395 94.1601 904.469 93.0217 904.607 91.9897C904.959 89.3404 906.374 87.4572 908.8 86.3826C910.524 85.6166 912.269 85.5208 913.769 85.5208C920.133 85.5208 926.507 85.5102 932.891 85.5208C933.913 85.5208 934.913 85.6591 935.945 85.8294C939.637 86.3826 942.021 89.1276 942.298 93.1387H956.993C956.503 89.4894 955.673 86.6273 954.365 84.1802H954.354Z" fill="white"/>
<path d="M755.273 77.9348C751.069 74.9025 746.153 73.3598 740.705 73.3385C728.958 73.3066 717.199 73.3279 705.462 73.3385C704.058 73.3385 702.6 73.4662 701.163 73.7003C697.929 74.2322 694.853 75.4664 691.98 77.3603C691.789 77.4879 690.788 78.1476 690.022 78.7328V73.6683H675.327V159.636C676.934 159.636 679.679 159.625 682.478 159.594C685.394 159.583 688.33 159.551 690.044 159.551V94.4368C690.044 93.6282 690.044 92.7983 690.139 91.9684C690.522 88.9574 692.14 86.872 694.8 85.9464C696.077 85.4995 697.407 85.2655 698.673 85.2548C703.781 85.2123 708.889 85.2123 713.996 85.2229H724.499C729.553 85.2229 734.597 85.2229 739.662 85.2655C740.854 85.2655 742.205 85.5315 743.514 85.989C746.387 86.9891 748.175 89.5851 748.186 92.7557C748.218 102.438 748.196 112.141 748.186 121.834C748.186 125.568 746.004 128.303 742.386 129.132C741.216 129.398 740.003 129.537 738.747 129.547C728.798 129.558 720.668 129.558 712.198 129.558H704.494L693.481 141.421C704.845 141.453 728.5 141.421 740.173 141.421H741.407C742.184 141.421 742.993 141.325 743.77 141.23L743.961 141.198C748.196 140.687 751.985 139.229 755.241 136.835C758.103 134.739 760.135 132.239 761.455 129.175C762.508 126.739 763.009 124.068 763.009 121.014V93.7346C763.009 92.3089 762.955 90.4363 762.508 88.6595C761.402 84.1909 758.976 80.5734 755.262 77.9029L755.273 77.9348Z" fill="white"/>
<path d="M1186.82 120.365C1186.82 121.174 1186.82 122.004 1186.71 122.834C1186.32 125.845 1184.71 127.93 1182.04 128.856C1180.76 129.303 1179.43 129.537 1178.18 129.547H1137.19C1135.98 129.547 1134.64 129.281 1133.32 128.824C1130.45 127.824 1128.66 125.228 1128.65 122.057C1128.62 112.365 1128.63 102.672 1128.65 92.9792C1128.65 89.2447 1130.82 86.5104 1134.45 85.6805C1135.61 85.4145 1136.84 85.2762 1138.08 85.2762H1172.33L1183.35 73.4024C1171.98 73.3598 1148.31 73.4024 1136.62 73.4024H1135.42C1134.64 73.4024 1133.83 73.4982 1133.06 73.5939L1132.88 73.6258C1128.65 74.1365 1124.86 75.5942 1121.6 77.9774C1118.79 80.0415 1116.69 82.6163 1115.38 85.6379C1114.33 88.085 1113.83 90.7556 1113.83 93.7985V121.078C1113.83 122.504 1113.88 124.377 1114.33 126.153C1115.44 130.622 1117.86 134.239 1121.58 136.899C1125.78 139.942 1130.68 141.474 1136.14 141.496C1147.89 141.528 1159.65 141.528 1171.39 141.496C1172.79 141.496 1174.25 141.368 1175.69 141.134C1178.92 140.602 1182 139.368 1184.87 137.474C1185.05 137.346 1185.83 136.867 1186.83 136.25V141.176H1201.52V41.3241L1186.82 41.3986V120.365Z" fill="white"/>
<path d="M986.106 39.8452H971.358V141.442H986.106V39.8452Z" fill="white"/>
<path d="M536.676 86.1273H476.15L466.488 97.9905C478.023 98.0011 519.288 97.9905 536.676 97.9905V141.453H551.424V39.8452H536.676V86.1273Z" fill="white"/>
<path d="M1308.02 73.4556H1302.31C1299.34 73.4556 1296.37 73.4556 1293.4 73.4875L1293.34 78.7647C1293.34 78.7647 1287.42 73.3279 1277.42 73.3279H1242.93C1241.17 73.3279 1239.77 73.4236 1238.5 73.6364C1235.05 74.211 1231.92 75.3707 1229.22 77.1049C1225.38 79.5627 1222.74 82.8397 1221.36 86.8295C1220.63 88.9361 1220.27 91.2449 1220.28 93.8729C1220.29 99.8417 1220.28 105.8 1220.28 111.769V120.717C1220.28 122.355 1220.38 123.717 1220.61 125.015C1221.23 128.569 1222.71 131.633 1225.03 134.133C1229.37 138.825 1234.88 141.251 1241.38 141.357C1252.23 141.538 1264.87 141.485 1277.07 141.411H1278.49L1289.49 129.547C1276.16 129.579 1256.89 129.579 1244.26 129.547C1243.11 129.547 1241.81 129.356 1240.41 128.983C1237.32 128.132 1235.38 125.685 1235.12 122.227C1235.08 121.866 1235.08 121.493 1235.08 121.121V93.9474C1235.08 92.7557 1235.16 91.4896 1235.62 90.2448C1236.4 88.1062 1237.9 86.6274 1239.95 85.9677C1241.32 85.5208 1242.63 85.2974 1243.8 85.2868C1248.91 85.2442 1254.01 85.2442 1259.12 85.2548H1269.42C1274.55 85.2548 1279.67 85.2548 1284.79 85.2868C1285.96 85.2868 1287.22 85.5208 1288.53 85.9677C1290.72 86.7018 1292.25 88.3297 1292.9 90.6704C1293.16 91.6173 1293.3 92.5855 1293.31 93.4899L1293.37 148.454V151.093C1293.37 151.773 1293.21 152.54 1292.91 153.231C1292.14 154.976 1290.77 156.242 1288.81 156.966C1287.47 157.466 1286 157.742 1284.39 157.7H1266.8C1258.76 157.7 1250.51 157.7 1243.65 157.689L1233.99 169.552C1244.6 169.605 1263.12 169.584 1276.83 169.552H1286.46C1287.46 169.542 1288.48 169.446 1289.44 169.329C1292.8 168.967 1296 167.86 1298.96 166.03C1302.54 163.828 1305.04 160.977 1306.58 157.359C1307.6 154.955 1308.07 152.327 1308.07 149.082V73.945H1308.03C1308.03 73.8067 1308.03 73.6577 1308.02 73.4875V73.4556Z" fill="white"/>
<path d="M656.737 73.9981V73.679H642.053V82.4885C642.053 95.2028 642.053 107.906 642.042 120.631C642.042 121.695 641.936 122.738 641.712 123.738C641.212 125.983 639.904 127.622 637.871 128.579C636.392 129.271 634.721 129.59 632.593 129.59H623.357C613.344 129.59 603.331 129.59 593.318 129.579C592.073 129.579 590.849 129.441 589.678 129.164C586.922 128.515 585.049 126.877 584.113 124.27C583.687 123.068 583.687 121.844 583.687 120.77V74.1684C583.687 73.9981 583.687 73.8492 583.677 73.679H569.024V120.493C569.024 121.855 569.12 123.238 569.29 124.632C569.748 128.196 571.195 131.335 573.589 133.984C577.931 138.772 583.464 141.272 590.072 141.379L628.411 141.421C632.934 141.421 636.913 140.315 640.18 138.133C640.372 138.006 641.276 137.367 642.042 136.463H642.053V150.731C642.01 152.965 640.957 154.838 638.978 156.125C637.414 157.157 635.519 157.668 633.221 157.668H592.296L582.634 169.531C595.648 169.541 623.346 169.531 635.041 169.531C635.945 169.531 636.924 169.456 638.116 169.318C642.181 168.829 645.862 167.392 649.065 165.02C654.12 161.275 656.684 156.338 656.695 150.316C656.748 131.516 656.737 112.396 656.737 93.9048V74.0088V73.9981Z" fill="white"/>
</g>
<defs>
<clipPath id="clip0_57_1922">
<rect width="1500" height="444" fill="white"/>
</clipPath>
</defs>
</svg>
