<svg width="701" height="809" viewBox="0 0 701 809" fill="none" xmlns="http://www.w3.org/2000/svg">
<path d="M516.687 692.347L517.176 95.5398L368.214 181.442V606.678L516.665 692.347H516.687Z" fill="#6100FF"/>
<path d="M551.432 115.851V692.347L661.308 628.925C685.777 614.803 700.863 588.707 700.863 560.463V247.756C700.905 219.512 685.82 193.395 661.329 179.273L551.432 115.851Z" fill="#4C00BD"/>
<path d="M184.592 712.636L350.873 808.088L499.346 722.399L333.511 626.692L184.592 712.636Z" fill="#6100FF"/>
<path d="M517.176 95.5398L350.895 0.0881348L202.422 85.7777L368.214 181.421L517.176 95.5185V95.5398Z" fill="#6696FF"/>
<path d="M40.4171 179.273C15.9482 193.395 0.862671 219.512 0.862671 247.756V560.611C0.905225 588.792 15.9057 614.824 40.2894 628.989L149.888 692.58L150.335 115.83L40.4171 179.273Z" fill="#6696FF"/>
<path d="M185.038 115.851L184.592 712.636L333.511 626.692V201.54L185.017 115.851H185.038Z" fill="#6966FF"/>
</svg>
