<svg width="771" height="888" viewBox="0 0 771 888" fill="none" xmlns="http://www.w3.org/2000/svg">
<path d="M715.617 190.274C749.664 209.914 770.65 246.194 770.65 285.474V602.547C770.65 641.827 749.664 678.108 715.617 697.748L385.65 888L55.6836 697.705C21.6366 678.065 0.650146 641.785 0.650146 602.505V285.432C0.650146 246.151 21.6366 209.871 55.6836 190.231L385.65 0L715.617 190.274Z" fill="white"/>
<path d="M551.347 731.836L551.837 134.736L402.674 220.681V646.126L551.326 731.836H551.347Z" fill="#6100FF"/>
<path d="M586.14 155.057V731.836L696.164 668.383C720.666 654.254 735.772 628.145 735.772 599.887V287.027C735.815 258.769 720.709 232.639 696.186 218.51L586.14 155.057Z" fill="#4C00BD"/>
<path d="M218.803 752.136L385.309 847.634L533.983 761.903L367.924 666.149L218.803 752.136Z" fill="#6100FF"/>
<path d="M551.837 134.736L385.331 39.2378L236.657 124.969L402.674 220.659L551.837 134.715V134.736Z" fill="#6696FF"/>
<path d="M74.4329 218.51C49.9309 232.639 34.825 258.769 34.825 287.027V600.036C34.8676 628.23 49.8883 654.275 74.305 668.447L184.052 732.07L184.5 155.036L74.4329 218.51Z" fill="#6696FF"/>
<path d="M219.25 155.057L218.803 752.136L367.924 666.149V240.789L219.229 155.057H219.25Z" fill="#6966FF"/>
</svg>
