<?xml version="1.0" encoding="UTF-8" standalone="no"?>
<svg
   width="960"
   height="540"
   viewBox="0 0 960 540"
   fill="none"
   version="1.1"
   id="svg27"
   sodipodi:docname="hyperledger-identus-discord-banner.svg"
   inkscape:version="1.4 (e7c3feb1, 2024-10-09)"
   inkscape:export-filename="hyperledger-identus-discord-banner.png"
   inkscape:export-xdpi="96"
   inkscape:export-ydpi="96"
   xmlns:inkscape="http://www.inkscape.org/namespaces/inkscape"
   xmlns:sodipodi="http://sodipodi.sourceforge.net/DTD/sodipodi-0.dtd"
   xmlns:xlink="http://www.w3.org/1999/xlink"
   xmlns="http://www.w3.org/2000/svg"
   xmlns:svg="http://www.w3.org/2000/svg">
  <sodipodi:namedview
     id="namedview27"
     pagecolor="#ffffff"
     bordercolor="#000000"
     borderopacity="0.25"
     inkscape:showpageshadow="2"
     inkscape:pageopacity="0.0"
     inkscape:pagecheckerboard="0"
     inkscape:deskcolor="#d1d1d1"
     inkscape:zoom="0.46846847"
     inkscape:cx="219.86538"
     inkscape:cy="521.91346"
     inkscape:window-width="1512"
     inkscape:window-height="852"
     inkscape:window-x="0"
     inkscape:window-y="38"
     inkscape:window-maximized="1"
     inkscape:current-layer="svg27" />
  <defs
     id="defs27">
    <linearGradient
       id="linearGradient30"
       inkscape:collect="always">
      <stop
         style="stop-color:#00ffff;stop-opacity:1"
         offset="0"
         id="stop31" />
      <stop
         style="stop-color:#800080;stop-opacity:1"
         offset="1"
         id="stop30" />
    </linearGradient>
    <clipPath
       id="clip0_57_1892">
      <rect
         width="1500"
         height="444"
         fill="#ffffff"
         id="rect27"
         x="0"
         y="0" />
    </clipPath>
    <linearGradient
       inkscape:collect="always"
       xlink:href="#linearGradient30"
       id="linearGradient31"
       x1="540.05774"
       y1="262.55768"
       x2="469.61539"
       y2="672.40387"
       gradientUnits="userSpaceOnUse"
       spreadMethod="reflect" />
  </defs>
  <g
     inkscape:groupmode="layer"
     id="layer1"
     inkscape:label="Layer 1">
    <rect
       style="display:inline;fill:url(#linearGradient31);stroke-width:0.945714;fill-opacity:1"
       id="rect29"
       width="960"
       height="540"
       x="0"
       y="0" />
  </g>
  <g
     clip-path="url(#clip0_57_1892)"
     id="g27"
     transform="matrix(0.57165647,0,0,0.57165647,51.257649,143.09226)">
    <g
       id="g7">
      <path
         d="m 1491.5,299.653 c -5.24,-7.044 -12.28,-12.544 -21.12,-16.513 -8.67,-4.149 -18.51,-7.405 -29.52,-9.746 l -14.08,-3.521 c -8.3,-1.99 -15.43,-4.245 -21.39,-6.767 -5.96,-2.703 -10.57,-6.139 -13.81,-10.289 -3.25,-4.149 -4.87,-9.564 -4.87,-16.246 0,-10.108 3.78,-17.864 11.37,-23.28 7.58,-5.596 17.6,-8.394 30.05,-8.394 8.67,0 16.35,1.351 23.02,4.064 6.86,2.703 12.18,6.863 15.97,12.448 3.98,5.597 5.96,12.991 5.96,22.205 v 11.374 h 22.47 v -11.374 c 0,-12.991 -2.98,-23.737 -8.93,-32.216 -5.77,-8.661 -13.81,-15.162 -24.1,-19.492 -10.11,-4.511 -21.57,-6.767 -34.39,-6.767 -12.82,0 -23.82,2.075 -33.57,6.224 -9.57,4.15 -17.06,10.108 -22.48,17.864 -5.23,7.756 -7.85,16.97 -7.85,27.61 0,10.639 2.35,19.406 7.05,26.258 4.87,6.682 11.54,12.097 20.03,16.247 8.48,4.149 18.23,7.671 29.24,10.554 l 14.08,3.522 c 8.48,1.99 15.89,4.33 22.21,7.043 6.31,2.533 11.18,5.863 14.62,10.012 3.61,4.15 5.42,9.746 5.42,16.79 0,10.107 -3.89,18.502 -11.65,25.183 -7.76,6.682 -19.04,10.012 -33.84,10.012 -14.8,0 -26.28,-3.787 -35.48,-11.373 -9.2,-7.757 -13.8,-19.492 -13.8,-35.196 v -5.682 h -22.47 v 5.682 c 0,14.8 3.06,27.163 9.2,37.089 6.31,9.746 14.89,17.056 25.72,21.929 10.83,4.872 23.1,7.309 36.83,7.309 13.72,0 25.63,-2.256 35.73,-6.767 10.29,-4.692 18.24,-11.193 23.83,-19.492 5.6,-8.298 8.39,-18.044 8.39,-29.237 0,-11.193 -2.61,-20.215 -7.84,-27.078 z"
         fill="#6696ff"
         id="path1" />
      <path
         d="m 1303.84,315.346 c 0,15.523 -4.15,27.163 -12.45,34.93 -8.29,7.756 -19.95,11.64 -34.93,11.64 -14.98,0 -26.62,-3.884 -34.92,-11.64 -8.3,-7.756 -12.46,-19.407 -12.46,-34.93 V 188.916 H 1186.6 V 315.08 c 0,14.619 2.9,26.982 8.68,37.09 5.77,9.927 13.89,17.417 24.36,22.471 10.47,5.053 22.74,7.575 36.82,7.575 14.08,0 26.36,-2.532 36.83,-7.575 10.65,-5.054 18.87,-12.544 24.64,-22.471 5.77,-10.108 8.67,-22.471 8.67,-37.09 V 188.916 h -22.76 z"
         fill="#6696ff"
         id="path2" />
      <path
         d="m 1014.43,209.493 h 60.92 v 168.935 h 22.75 V 209.493 h 60.92 v -20.577 h -144.59 z"
         fill="#6696ff"
         id="path3" />
      <path
         d="m 962.696,364.086 h -3.522 L 893.115,188.916 H 848.977 V 378.428 H 871.45 V 203.003 h 3.789 l 65.803,175.425 H 985.17 V 188.916 h -22.474 z"
         fill="#6696ff"
         id="path4" />
      <path
         d="m 719.147,293.418 h 86.383 v -20.566 h -86.383 v -63.359 h 93.959 V 188.916 H 696.407 v 189.512 h 118.051 v -20.577 h -95.311 z"
         fill="#6696ff"
         id="path5" />
      <path
         d="m 639.52,207.876 c -13.535,-12.629 -32.763,-18.949 -57.673,-18.949 h -73.923 v 20.311 h 26.538 v 148.901 h -26.538 v 20.311 h 73.923 c 24.91,0 44.138,-6.225 57.673,-18.684 13.717,-12.629 20.58,-32.131 20.58,-58.475 v -35.195 c 0,-26.174 -6.863,-45.57 -20.58,-58.209 z m -1.894,94.479 c 0,18.949 -4.692,32.94 -14.078,41.963 -9.385,9.022 -23.282,13.533 -41.701,13.533 H 557.202 V 209.759 h 24.645 c 18.408,0 32.305,4.426 41.701,13.268 9.386,8.841 14.078,22.917 14.078,42.239 z"
         fill="#6696ff"
         id="path6" />
      <path
         d="m 473.501,188.916 h -22.74 v 189.512 h 22.74 z"
         fill="#6696ff"
         id="path7" />
    </g>
    <g
       id="g19">
      <path
         d="m 1094.19,90.1173 c -0.62,-4.2133 -2.56,-7.8095 -5.79,-10.6822 -4.3,-3.8302 -9.57,-5.7879 -15.64,-5.8092 -6.67,-0.0425 -13.38,-0.0425 -20.06,-0.0425 -7.38,0 -14.72,0.0106 -21.93,0.0319 h -4.5 c -1.37,0 -2.86,0.1489 -4.41,0.4256 -2.67,0.4681 -5.16,1.3618 -7.41,2.6386 -3.42,1.9577 -5.97,4.4686 -7.75,7.6605 -1.6,2.862 -2.38,5.9901 -2.37,9.5862 v 11.5548 c 0,5.203 0,10.405 0.03,15.608 0,1.043 0.07,2.139 0.23,3.277 0.79,5.788 3.85,10.352 9.12,13.555 3.84,2.341 8.27,3.522 13.13,3.543 h 45.46 c 3.97,0 7.66,-0.819 10.95,-2.426 6.57,-3.203 10.21,-8.139 11.1,-15.076 0.07,-0.532 0.09,-1.064 0.12,-1.639 v -0.053 h -14.62 l -0.06,0.404 c -0.38,3.341 -2.49,5.767 -5.64,6.49 -1.21,0.277 -2.44,0.415 -3.64,0.415 -13.98,0.032 -27.96,0.032 -41.95,0 -1.22,0 -2.43,-0.138 -3.64,-0.415 -2.74,-0.627 -4.59,-2.287 -5.36,-4.83 -0.3,-0.957 -0.46,-2.043 -0.5,-3.224 -0.05,-1.628 -0.04,-3.255 -0.03,-4.841 v -3.383 l 75.53,0.128 v -5.352 c 0,-4.118 0.01,-8.2245 -0.02,-12.342 -0.01,-1.9151 -0.14,-3.6068 -0.35,-5.1708 z m -14.28,9.799 v 1.0537 h -60.85 v -3.288 c 0,-1.5534 -0.03,-3.16 0.04,-4.7452 h -0.02 c 0.16,-3.7026 2.42,-6.3519 6.05,-7.1179 1.19,-0.2554 2.43,-0.3724 3.72,-0.3724 10.72,-0.0106 21.42,-0.0106 32.13,-0.0106 h 9.36 c 1.28,0 2.97,0.0638 4.64,0.649 2.93,1.0001 4.61,3.1599 4.83,6.256 0.12,1.7875 0.11,3.5962 0.1,5.3411 0,0.7448 -0.02,1.4895 0,2.2343 z"
         fill="#163a44"
         id="path8" />
      <path
         d="m 1414.51,90.1172 c -0.61,-4.2026 -2.55,-7.7988 -5.79,-10.6714 -4.3,-3.8303 -9.55,-5.788 -15.63,-5.8092 -6.66,-0.0426 -13.38,-0.0426 -20.07,-0.0426 -7.36,0 -14.7,0.0106 -21.92,0.0319 h -4.51 c -1.36,0 -2.84,0.149 -4.4,0.4256 -2.68,0.4681 -5.16,1.3619 -7.4,2.6386 -3.44,1.9577 -5.97,4.4686 -7.76,7.6605 -1.59,2.862 -2.37,5.9901 -2.36,9.5863 v 11.5541 c 0,5.203 0,10.406 0.01,15.609 0,1.042 0.08,2.138 0.23,3.277 0.8,5.788 3.87,10.352 9.12,13.554 3.84,2.341 8.27,3.522 13.14,3.543 h 45.46 c 3.97,0 7.66,-0.819 10.95,-2.425 6.58,-3.203 10.21,-8.14 11.1,-15.077 0.06,-0.542 0.1,-1.085 0.13,-1.649 v -0.053 h -14.63 l -0.06,0.404 c -0.39,3.341 -2.5,5.767 -5.65,6.49 -1.2,0.277 -2.42,0.415 -3.62,0.415 -14,0.032 -27.97,0.032 -41.95,0 -1.23,0 -2.45,-0.138 -3.64,-0.415 -2.75,-0.627 -4.61,-2.287 -5.37,-4.83 -0.29,-0.957 -0.46,-2.043 -0.5,-3.224 -0.06,-1.628 -0.04,-3.255 -0.03,-4.841 v -3.383 l 75.52,0.128 v -5.352 c 0,-4.118 0.02,-8.2245 -0.01,-12.342 -0.01,-1.9151 -0.14,-3.6068 -0.36,-5.1708 z m -14.32,7.5648 c 0,0.7448 -0.01,1.4895 0,2.2343 v 1.0537 h -60.84 v -3.288 c 0,-1.5534 -0.03,-3.16 0.04,-4.7453 0.16,-3.7025 2.41,-6.3518 6.04,-7.1178 1.19,-0.2554 2.44,-0.3724 3.72,-0.3724 10.72,-0.0107 21.42,-0.0107 32.13,-0.0107 h 9.36 c 1.28,0 2.97,0.0639 4.64,0.6491 2.93,1.0001 4.61,3.1599 4.83,6.256 0.12,1.7875 0.11,3.5962 0.1,5.3411 z"
         fill="#163a44"
         id="path9" />
      <path
         d="m 870.588,90.1172 h 0.011 c -0.607,-4.2026 -2.554,-7.7988 -5.789,-10.6714 -4.299,-3.8303 -9.555,-5.788 -15.642,-5.8092 -6.661,-0.0426 -13.375,-0.0426 -20.069,-0.0426 -7.363,0 -14.705,0.0106 -21.92,0.0319 h -4.512 c -1.362,0 -2.841,0.149 -4.394,0.4256 -2.682,0.4681 -5.161,1.3619 -7.407,2.6386 -3.437,1.9577 -5.969,4.4686 -7.757,7.6605 -1.596,2.8408 -2.373,5.9901 -2.362,9.5863 v 11.4161 c 0,5.245 0,10.501 0.011,15.747 0,1.042 0.085,2.138 0.234,3.277 0.787,5.788 3.852,10.352 9.119,13.554 3.841,2.341 8.268,3.522 13.142,3.543 H 848.7 c 3.969,0 7.661,-0.819 10.95,-2.425 6.576,-3.203 10.215,-8.14 11.098,-15.077 0.075,-0.542 0.096,-1.085 0.128,-1.649 v -0.053 h -14.621 l -0.053,0.404 c -0.383,3.341 -2.501,5.767 -5.65,6.49 -1.214,0.277 -2.427,0.415 -3.64,0.415 -13.982,0.032 -27.964,0.032 -41.946,0 -1.224,0 -2.437,-0.138 -3.639,-0.415 -2.746,-0.627 -4.608,-2.287 -5.374,-4.83 -0.287,-0.957 -0.458,-2.043 -0.5,-3.224 -0.053,-1.628 -0.043,-3.255 -0.032,-4.841 v -1.553 c 0,-0.213 0.042,-0.415 0.074,-0.681 l 0.128,-1.032 h 75.327 v -5.373 c 0,-4.107 0.011,-8.2138 -0.01,-12.3313 -0.011,-1.9151 -0.139,-3.6068 -0.362,-5.1708 z m -14.29,7.6605 h -0.032 c 0,0.7342 -0.011,1.4896 0,2.2343 0,0.213 -0.075,0.372 -0.128,0.468 l -0.192,0.468 -0.553,0.117 h -59.791 l -0.107,-0.861 c -0.032,-0.171 -0.053,-0.3196 -0.053,-0.4686 v -1.9577 c 0,-1.5533 -0.032,-3.1599 0.043,-4.7452 0.149,-3.7026 2.415,-6.3518 6.033,-7.1179 1.192,-0.2447 2.437,-0.3724 3.735,-0.3724 10.715,-0.0106 21.42,-0.0106 32.125,-0.0106 h 9.364 c 1.277,0 2.969,0.0745 4.629,0.649 2.926,1.0001 4.607,3.16 4.831,6.2561 0.128,1.7768 0.106,3.5962 0.096,5.341 z"
         fill="#163a44"
         id="path10" />
      <path
         d="M 466.467,91.5216 V 39.0685 H 451.719 V 141.347 c 1.723,0 3.107,0 4.682,-0.032 2.362,-0.011 5.118,-0.043 10.076,-0.043 v -11.533 c 0.043,-10.214 0,-7.948 0,-18.162 V 91.511 Z"
         fill="#163a44"
         id="path11" />
      <path
         d="m 1497.38,84.1697 c -1.77,-3.3302 -4.29,-5.9369 -7.48,-7.7456 -3.24,-1.83 -6.96,-2.745 -11.34,-2.8195 -5.95,-0.0851 -11.29,-0.0851 -16.32,0 -3.42,0.0532 -6.78,0.7873 -9.71,2.0854 -1.98,0.8724 -3.73,2.2236 -5.26,3.777 l -0.08,0.0851 v -5.7879 h -14.75 c 0,0 0.35,67.7738 0.11,67.6358 h 14.65 l 0.21,-45.8353 c 0,-1.4044 0.07,-2.5429 0.2,-3.5749 0.36,-2.6493 1.77,-4.5325 4.2,-5.6071 1.72,-0.766 3.47,-0.8618 4.97,-0.8618 6.37,0 12.73,-0.0106 19.12,0 1.02,0 2.02,0.1383 3.05,0.3086 3.69,0.5532 6.08,3.2982 6.35,7.3094 h 14.7 c -0.49,-3.6494 -1.32,-6.5115 -2.62,-8.9586 z"
         fill="#163a44"
         id="path12" />
      <path
         d="m 954.354,84.1803 c -1.777,-3.3408 -4.288,-5.9475 -7.481,-7.7562 -3.245,-1.83 -6.948,-2.745 -11.332,-2.8195 -5.949,-0.0851 -11.29,-0.0851 -16.334,0 -3.416,0.0532 -6.768,0.7873 -9.694,2.0854 -1.979,0.8724 -3.735,2.2236 -5.257,3.777 l -0.085,0.0851 v -5.7879 h -14.748 c 0,0 0.351,67.7738 0.106,67.6358 h 14.653 l 0.213,-45.8353 c 0,-1.4044 0.074,-2.5429 0.212,-3.5749 0.352,-2.6493 1.767,-4.5325 4.193,-5.6071 1.724,-0.766 3.469,-0.8618 4.969,-0.8618 6.364,0 12.738,-0.0106 19.122,0 1.022,0 2.022,0.1383 3.054,0.3086 3.692,0.5532 6.076,3.2982 6.353,7.3094 h 14.695 c -0.49,-3.6494 -1.32,-6.5115 -2.628,-8.9586 z"
         fill="#163a44"
         id="path13" />
      <path
         d="m 755.273,77.9349 c -4.204,-3.0322 -9.12,-4.575 -14.568,-4.5963 -11.747,-0.0319 -23.506,-0.0106 -35.243,0 -1.404,0 -2.862,0.1277 -4.299,0.3618 -3.234,0.532 -6.31,1.7661 -9.183,3.66 -0.191,0.1277 -1.192,0.7873 -1.958,1.3725 v -5.0644 h -14.695 v 85.9675 c 1.607,0 4.352,-0.01 7.151,-0.042 2.916,-0.011 5.852,-0.043 7.566,-0.043 V 94.4369 c 0,-0.8086 0,-1.6385 0.095,-2.4684 0.383,-3.011 2.001,-5.0963 4.661,-6.022 1.277,-0.4468 2.607,-0.6809 3.873,-0.6915 5.108,-0.0426 10.216,-0.0426 15.323,-0.032 h 10.503 c 5.054,0 10.098,0 15.163,0.0426 1.192,0 2.543,0.266 3.852,0.7235 2.873,1.0001 4.661,3.5962 4.672,6.7668 0.032,9.6821 0.01,19.3851 0,29.0781 0,3.734 -2.182,6.469 -5.8,7.299 -1.17,0.266 -2.383,0.404 -3.639,0.414 -9.949,0.011 -18.079,0.011 -26.549,0.011 h -7.704 l -11.013,11.863 c 11.364,0.032 35.019,0 46.692,0 h 1.234 c 0.777,0 1.586,-0.095 2.363,-0.191 l 0.191,-0.032 c 4.235,-0.511 8.024,-1.968 11.28,-4.362 2.862,-2.096 4.894,-4.597 6.214,-7.661 1.053,-2.436 1.554,-5.107 1.554,-8.16 V 93.7347 c 0,-1.4257 -0.054,-3.2983 -0.501,-5.0751 -1.106,-4.4686 -3.532,-8.0861 -7.246,-10.7566 z"
         fill="#163a44"
         id="path14" />
      <path
         d="m 1186.82,120.366 c 0,0.808 0,1.638 -0.11,2.468 -0.39,3.011 -2,5.096 -4.67,6.022 -1.28,0.447 -2.61,0.681 -3.86,0.691 h -40.99 c -1.21,0 -2.55,-0.265 -3.87,-0.723 -2.87,-1 -4.66,-3.596 -4.67,-6.767 -0.03,-9.692 -0.02,-19.385 0,-29.0777 0,-3.7345 2.17,-6.4689 5.8,-7.2988 1.16,-0.266 2.39,-0.4043 3.63,-0.4043 h 34.25 l 11.02,-11.8737 c -11.37,-0.0426 -35.04,0 -46.73,0 h -1.2 c -0.78,0 -1.59,0.0957 -2.36,0.1915 l -0.18,0.0319 c -4.23,0.5107 -8.02,1.9683 -11.28,4.3516 -2.81,2.0641 -4.91,4.6388 -6.22,7.6605 -1.05,2.4471 -1.55,5.1176 -1.55,8.1605 v 27.2795 c 0,1.426 0.05,3.299 0.5,5.075 1.11,4.469 3.53,8.087 7.25,10.746 4.2,3.043 9.1,4.575 14.56,4.597 11.75,0.032 23.51,0.032 35.25,0 1.4,0 2.86,-0.128 4.3,-0.362 3.23,-0.532 6.31,-1.766 9.18,-3.66 0.18,-0.128 0.96,-0.606 1.96,-1.224 v 4.927 h 14.69 V 41.3242 l -14.7,0.0744 z"
         fill="#163a44"
         id="path15" />
      <path
         d="M 986.106,39.8453 H 971.358 V 141.443 h 14.748 z"
         fill="#163a44"
         id="path16" />
      <path
         d="M 536.676,86.1275 H 476.15 l -9.662,11.8631 c 11.535,0.0106 52.8,0 70.188,0 v 43.4624 h 14.748 V 39.8453 h -14.748 z"
         fill="#163a44"
         id="path17" />
      <path
         d="m 1308.02,73.4557 h -5.71 c -2.97,0 -5.94,0 -8.91,0.0319 l -0.06,5.2772 c 0,0 -5.92,-5.4368 -15.92,-5.4368 h -34.49 c -1.76,0 -3.16,0.0958 -4.43,0.3086 -3.45,0.5745 -6.58,1.7342 -9.28,3.4685 -3.84,2.4577 -6.48,5.7347 -7.86,9.7245 -0.73,2.1067 -1.09,4.4154 -1.08,7.0434 0.01,5.9688 0,11.927 0,17.896 v 8.948 c 0,1.638 0.1,3 0.33,4.298 0.62,3.554 2.1,6.618 4.42,9.118 4.34,4.692 9.85,7.118 16.35,7.224 10.85,0.181 23.49,0.128 35.69,0.054 h 1.42 l 11,-11.863 c -13.33,0.031 -32.6,0.031 -45.23,0 -1.15,0 -2.45,-0.192 -3.85,-0.564 -3.09,-0.852 -5.03,-3.299 -5.29,-6.757 -0.04,-0.361 -0.04,-0.734 -0.04,-1.106 V 93.9475 c 0,-1.1916 0.08,-2.4577 0.54,-3.7026 0.78,-2.1385 2.28,-3.6174 4.33,-4.2771 1.37,-0.4468 2.68,-0.6703 3.85,-0.6809 5.11,-0.0426 10.21,-0.0426 15.32,-0.0319 h 10.3 c 5.13,0 10.25,0 15.37,0.0319 1.17,0 2.43,0.2341 3.74,0.6809 2.19,0.7342 3.72,2.362 4.37,4.7027 0.26,0.9469 0.4,1.9151 0.41,2.8195 l 0.06,54.964 v 2.639 c 0,0.681 -0.16,1.447 -0.46,2.138 -0.77,1.745 -2.14,3.011 -4.1,3.735 -1.34,0.5 -2.81,0.776 -4.42,0.734 h -17.59 c -8.04,0 -16.29,0 -23.15,-0.011 l -9.66,11.863 c 10.61,0.053 29.13,0.032 42.84,0 h 9.63 c 1,-0.01 2.02,-0.106 2.98,-0.223 3.36,-0.362 6.56,-1.468 9.52,-3.298 3.58,-2.203 6.08,-5.054 7.62,-8.672 1.02,-2.404 1.49,-5.032 1.49,-8.277 V 73.9451 h -0.04 c 0,-0.1383 0,-0.2873 -0.01,-0.4575 z"
         fill="#163a44"
         id="path18" />
      <path
         d="m 656.737,73.9983 v -0.3192 h -14.684 v 8.8095 c 0,12.7143 0,25.4184 -0.011,38.1434 0,1.063 -0.106,2.106 -0.33,3.106 -0.5,2.245 -1.808,3.884 -3.841,4.841 -1.479,0.692 -3.15,1.011 -5.278,1.011 h -9.236 c -10.013,0 -20.026,0 -30.039,-0.011 -1.245,0 -2.469,-0.138 -3.64,-0.415 -2.756,-0.649 -4.629,-2.287 -5.565,-4.894 -0.426,-1.202 -0.426,-2.426 -0.426,-3.5 V 74.1685 c 0,-0.1702 0,-0.3192 -0.01,-0.4894 h -14.653 v 46.8139 c 0,1.362 0.096,2.745 0.266,4.139 0.458,3.564 1.905,6.703 4.299,9.352 4.342,4.788 9.875,7.288 16.483,7.395 l 38.339,0.042 c 4.523,0 8.502,-1.106 11.769,-3.287 0.192,-0.128 1.096,-0.766 1.862,-1.671 h 0.011 v 14.268 c -0.043,2.234 -1.096,4.107 -3.075,5.394 -1.564,1.032 -3.459,1.543 -5.757,1.543 h -40.925 l -9.662,11.863 c 13.014,0.011 40.712,0 52.407,0 0.904,0 1.883,-0.074 3.075,-0.213 4.065,-0.489 7.746,-1.926 10.949,-4.298 5.055,-3.745 7.619,-8.682 7.63,-14.704 0.053,-18.8 0.042,-37.92 0.042,-56.4111 v -19.896 z"
         fill="#163a44"
         id="path19" />
    </g>
    <g
       id="g26">
      <path
         d="m 357.078,95.1391 c 17.004,9.8199 27.486,27.9609 27.486,47.6019 v 158.54 c 0,19.64 -10.482,37.781 -27.486,47.601 L 192.282,444.011 27.4855,348.861 C 10.4813,339.041 0,320.9 0,301.259 V 142.719 C 0,123.079 10.4813,104.938 27.4855,95.1178 L 192.282,0 Z"
         fill="#ffffff"
         id="path20" />
      <path
         d="m 275.036,365.927 0.245,-298.5572 -74.497,42.9732 v 212.728 l 74.242,42.856 z"
         fill="#6100ff"
         id="path21" />
      <path
         d="M 292.413,77.5305 V 365.927 l 54.95,-31.727 c 12.237,-7.065 19.781,-20.12 19.781,-34.249 V 143.517 c 0.022,-14.129 -7.523,-27.195 -19.771,-34.259 z"
         fill="#4c00bd"
         id="path22" />
      <path
         d="m 108.953,376.077 83.159,47.75 74.252,-42.866 -82.935,-47.878 z"
         fill="#6100ff"
         id="path23" />
      <path
         d="M 275.281,67.3698 192.122,19.6194 117.87,62.4862 200.784,110.332 275.281,67.3591 Z"
         fill="#6696ff"
         id="path24" />
      <path
         d="m 36.8495,109.258 c -12.237,7.064 -19.7815,20.13 -19.7815,34.259 v 156.508 c 0.0213,14.098 7.5232,27.121 19.7177,34.207 l 54.8115,31.812 0.2234,-288.5241 z"
         fill="#6696ff"
         id="path25" />
      <path
         d="m 109.176,77.5305 -0.223,298.5465 74.476,-42.995 V 120.397 L 109.165,77.5305 Z"
         fill="#6966ff"
         id="path26" />
    </g>
  </g>
</svg>
